<svg width="72" height="72" viewBox="0 0 72 72" fill="none" xmlns="http://www.w3.org/2000/svg">
<g clip-path="url(#clip0_110_1808)">
<path d="M57 12H54V6H48V12H24V6H18V12H15C11.67 12 9.03 14.7 9.03 18L9 60C9 63.3 11.67 66 15 66H57C60.3 66 63 63.3 63 60V18C63 14.7 60.3 12 57 12ZM57 60H15V30H57V60ZM57 24H15V18H57V24ZM27 42H21V36H27V42ZM39 42H33V36H39V42ZM51 42H45V36H51V42ZM27 54H21V48H27V54ZM39 54H33V48H39V54ZM51 54H45V48H51V54Z" fill="#1A1A1A"/>
</g>
<defs>
<clipPath id="clip0_110_1808">
<rect width="72" height="72" fill="white"/>
</clipPath>
</defs>
</svg>
