<svg width="72" height="72" viewBox="0 0 72 72" fill="none" xmlns="http://www.w3.org/2000/svg">
<g clip-path="url(#clip0_110_1832)">
<path d="M19.62 15C19.8 17.67 20.25 20.28 20.97 22.77L17.37 26.37C16.14 22.77 15.36 18.96 15.09 15H19.62ZM49.2 51.06C51.75 51.78 54.36 52.23 57 52.41V56.88C53.04 56.61 49.23 55.83 45.6 54.63L49.2 51.06ZM22.5 9H12C10.35 9 9 10.35 9 12C9 40.17 31.83 63 60 63C61.65 63 63 61.65 63 60V49.53C63 47.88 61.65 46.53 60 46.53C56.28 46.53 52.65 45.93 49.29 44.82C48.99 44.7 48.66 44.67 48.36 44.67C47.58 44.67 46.83 44.97 46.23 45.54L39.63 52.14C31.14 47.79 24.18 40.86 19.86 32.37L26.46 25.77C27.3 24.93 27.54 23.76 27.21 22.71C26.1 19.35 25.5 15.75 25.5 12C25.5 10.35 24.15 9 22.5 9Z" fill="#1A1A1A"/>
</g>
<defs>
<clipPath id="clip0_110_1832">
<rect width="72" height="72" fill="white"/>
</clipPath>
</defs>
</svg>
