<svg width="72" height="72" viewBox="0 0 72 72" fill="none" xmlns="http://www.w3.org/2000/svg">
  <g clip-path="url(#clip0_110_1728)">
    <path d="M46.65 39C48.9 39 50.88 37.77 51.9 35.91L62.64 16.44C63.75 14.46 62.31 12 60.03 12H15.63L12.81 6H3V12H9L19.8 34.77L15.75 42.09C13.56 46.11 16.44 51 21 51H57V45H21L24.3 39H46.65ZM18.48 18H54.93L46.65 33H25.59L18.48 18ZM21 54C17.7 54 15.03 56.7 15.03 60C15.03 63.3 17.7 66 21 66C24.3 66 27 63.3 27 60C27 56.7 24.3 54 21 54ZM51 54C47.7 54 45.03 56.7 45.03 60C45.03 63.3 47.7 66 51 66C54.3 66 57 63.3 57 60C57 56.7 54.3 54 51 54Z" fill="#1A1A1A"/>
  </g>
  <defs>
    <clipPath id="clip0_110_1728">
      <rect width="72" height="72" fill="white"/>
    </clipPath>
  </defs>
</svg>
