<svg width="72" height="72" viewBox="0 0 72 72" fill="none" xmlns="http://www.w3.org/2000/svg">
<g clip-path="url(#clip0_110_1802)">
<path d="M49.5 9C44.28 9 39.27 11.43 36 15.27C32.73 11.43 27.72 9 22.5 9C13.26 9 6 16.26 6 25.5C6 36.84 16.2 46.08 31.65 60.12L36 64.05L40.35 60.09C55.8 46.08 66 36.84 66 25.5C66 16.26 58.74 9 49.5 9ZM36.3 55.65L36 55.95L35.7 55.65C21.42 42.72 12 34.17 12 25.5C12 19.5 16.5 15 22.5 15C27.12 15 31.62 17.97 33.21 22.08H38.82C40.38 17.97 44.88 15 49.5 15C55.5 15 60 19.5 60 25.5C60 34.17 50.58 42.72 36.3 55.65Z" fill="#1A1A1A"/>
</g>
<defs>
<clipPath id="clip0_110_1802">
<rect width="72" height="72" fill="white"/>
</clipPath>
</defs>
</svg>
