<svg width="72" height="72" viewBox="0 0 72 72" fill="none" xmlns="http://www.w3.org/2000/svg">
  <g clip-path="url(#clip0_110_1742)">
    <path d="M36 6C19.44 6 6 19.44 6 36C6 52.56 19.44 66 36 66C52.56 66 66 52.56 66 36C66 19.44 52.56 6 36 6ZM22.05 55.5C25.98 52.68 30.78 51 36 51C41.22 51 46.02 52.68 49.95 55.5C46.02 58.32 41.22 60 36 60C30.78 60 25.98 58.32 22.05 55.5ZM54.42 51.36C49.35 47.4 42.96 45 36 45C29.04 45 22.65 47.4 17.58 51.36C14.1 47.19 12 41.85 12 36C12 22.74 22.74 12 36 12C49.26 12 60 22.74 60 36C60 41.85 57.9 47.19 54.42 51.36Z" fill="#1A1A1A"/>
    <path d="M36 18C30.21 18 25.5 22.71 25.5 28.5C25.5 34.29 30.21 39 36 39C41.79 39 46.5 34.29 46.5 28.5C46.5 22.71 41.79 18 36 18ZM36 33C33.51 33 31.5 30.99 31.5 28.5C31.5 26.01 33.51 24 36 24C38.49 24 40.5 26.01 40.5 28.5C40.5 30.99 38.49 33 36 33Z" fill="#1A1A1A"/>
  </g>
  <defs>
    <clipPath id="clip0_110_1742">
      <rect width="72" height="72" fill="white"/>
    </clipPath>
  </defs>
</svg>
