<svg width="72" height="72" viewBox="0 0 72 72" fill="none" xmlns="http://www.w3.org/2000/svg">
<g clip-path="url(#clip0_110_1829)">
<path d="M13.02 8.78979L8.78998 13.0198L21.87 26.0998L21 26.9998H8.99998V44.9998H21L36 59.9998V40.2298L48.54 52.7698C46.59 54.2398 44.4 55.4098 42 56.0998V62.2798C46.02 61.3798 49.71 59.5198 52.83 57.0298L58.98 63.1798L63.21 58.9498L13.02 8.78979ZM30 45.5098L23.49 38.9998H15V32.9998H23.49L26.13 30.3598L30 34.2298V45.5098ZM57 35.9998C57 38.4598 56.55 40.8298 55.77 43.0198L60.36 47.6098C62.04 44.0998 63 40.1698 63 35.9998C63 23.1598 54.03 12.4198 42 9.68979V15.8698C50.67 18.4498 57 26.4898 57 35.9998ZM36 11.9998L30.36 17.6398L36 23.2798V11.9998ZM49.5 35.9998C49.5 30.6898 46.44 26.1298 42 23.9098V29.2798L49.44 36.7198C49.47 36.4798 49.5 36.2398 49.5 35.9998Z" fill="#1A1A1A"/>
</g>
<defs>
<clipPath id="clip0_110_1829">
<rect width="72" height="72" fill="white"/>
</clipPath>
</defs>
</svg>
