<svg width="72" height="72" viewBox="0 0 72 72" fill="none" xmlns="http://www.w3.org/2000/svg">
<g clip-path="url(#clip0_110_1830)">
<path d="M9 26.9999V44.9999H21L36 59.9999V11.9999L21 26.9999H9ZM30 26.4899V45.5099L23.49 38.9999H15V32.9999H23.49L30 26.4899ZM49.5 35.9999C49.5 30.6899 46.44 26.1299 42 23.9099V48.0599C46.44 45.8699 49.5 41.3099 49.5 35.9999ZM42 9.68994V15.8699C50.67 18.4499 57 26.4899 57 35.9999C57 45.5099 50.67 53.5499 42 56.1299V62.3099C54.03 59.5799 63 48.8399 63 35.9999C63 23.1599 54.03 12.4199 42 9.68994Z" fill="#1A1A1A"/>
</g>
<defs>
<clipPath id="clip0_110_1830">
<rect width="72" height="72" fill="white"/>
</clipPath>
</defs>
</svg>
